<svg xmlns="http://www.w3.org/2000/svg" viewBox="0 0 100 100" fill="none">
  <circle cx="50" cy="50" r="46" fill="#059647" fill-opacity="0.12" stroke="#059647" stroke-width="2"/>
  <!-- Recycle Car Icon -->
  <path d="M50 18 C32 18 18 32 18 50 C18 58 21 65 26 71" stroke="#059647" stroke-width="6" stroke-linecap="round"/>
  <polygon points="16,42 26,42 21,32" fill="#059647"/>
  <path d="M50 82 C68 82 82 68 82 50 C82 42 79 35 74 29" stroke="#0ca750" stroke-width="6" stroke-linecap="round"/>
  <polygon points="84,58 74,58 79,68" fill="#0ca750"/>
  <!-- Stylized Car inside -->
  <path d="M34 56 L38 46 Q40 43 45 43 L55 43 Q60 43 62 46 L66 56 Z" fill="#059647"/>
  <rect x="30" y="54" width="40" height="10" rx="3" fill="#047857"/>
  <circle cx="39" cy="64" r="4.5" fill="#1e293b"/>
  <circle cx="39" cy="64" r="2" fill="#e2e8f0"/>
  <circle cx="61" cy="64" r="4.5" fill="#1e293b"/>
  <circle cx="61" cy="64" r="2" fill="#e2e8f0"/>
  <polygon points="41,45 46,45 46,52 38,52" fill="#ecfdf5"/>
  <polygon points="49,45 59,45 62,52 49,52" fill="#ecfdf5"/>
</svg>
